<svg width="12" height="12" viewBox="0 0 12 12" fill="black" xmlns="http://www.w3.org/2000/svg">
<path fill-rule="evenodd" clip-rule="evenodd" d="M0.471232 0.471205C0.860282 0.0821548 1.47568 0.0428814 1.91 0.373438L1.92212 0.382665L2.02226 0.470854L6.00008 4.44993L9.97827 0.471215C10.378 0.0714559 11.0094 0.0449434 11.4401 0.391462L11.4496 0.399106L11.5292 0.470974C11.9197 0.861502 11.956 1.47743 11.6181 1.92053L11.6132 1.92688L11.5292 2.02219L7.55018 6.00002L11.5289 9.97824C11.9287 10.378 11.9552 11.0093 11.6087 11.4401L11.601 11.4496L11.5292 11.5291C11.1386 11.9197 10.5227 11.956 10.0796 11.6181L10.0733 11.6132L9.97796 11.5292L5.9994 7.55012L2.02191 11.5289C1.62215 11.9286 0.990802 11.9552 0.560059 11.6086L0.550559 11.601L0.471002 11.5291C0.0804731 11.1386 0.0441285 10.5227 0.382075 10.0796L0.386914 10.0732L0.470914 9.97794L4.44931 6.00002L0.471232 2.02186C0.471232 2.02186 0.471233 2.02186 0.471232 2.02186C0.0714744 1.6221 0.0449714 0.990775 0.391489 0.560031L0.399132 0.550531L0.471232 0.471205ZM4.7675 6.00002L0.630331 10.1373L0.560979 10.216C0.289945 10.5714 0.3211 11.0606 0.630331 11.3698L0.701092 11.4333C1.0433 11.7086 1.54514 11.6874 1.86279 11.3698L5.99938 7.2319L10.1374 11.3698L10.2161 11.4392C10.5714 11.7102 11.0606 11.679 11.3698 11.3698L11.4334 11.299C11.7087 10.9568 11.6875 10.455 11.3698 10.1373L7.23196 6.00002L11.3698 1.86276L11.4392 1.78408C11.7102 1.42872 11.6791 0.939535 11.3698 0.630304L11.2991 0.566775C10.9569 0.291483 10.455 0.312659 10.1374 0.630304L6.00008 4.76815L1.86279 0.630304L1.77373 0.55248C1.42875 0.289918 0.939563 0.321072 0.630331 0.630304L0.566802 0.701065C0.29151 1.04327 0.312686 1.54512 0.630331 1.86276L4.7675 6.00002Z" fill="#4D4D4D"/>
</svg>
